<svg xmlns="http://www.w3.org/2000/svg" viewBox="0 0 144.63 125.93"><defs><style>.cls-1,.cls-3,.cls-4{fill:#662d91;}.cls-1,.cls-2,.cls-3,.cls-4,.cls-5,.cls-6,.cls-7,.cls-8{stroke:#666;stroke-miterlimit:10;}.cls-1,.cls-2{stroke-width:0.63px;}.cls-2,.cls-5,.cls-6{fill:#f15a24;}.cls-3{stroke-width:3px;}.cls-4{stroke-width:5px;}.cls-5{stroke-width:1.91px;}.cls-6,.cls-7{stroke-width:1.43px;}.cls-7{fill:#1a1a1a;}.cls-8{stroke-width:1.47px;}</style></defs><title>Asset 1</title><g id="Layer_2" data-name="Layer 2"><g id="Layer_1-2" data-name="Layer 1"><rect class="cls-1" x="0.31" y="0.31" width="144" height="125"/><path class="cls-2" d="M56.89,14.18c-6.3-5.11-14.71-7.36-27.78-7.36A126.8,126.8,0,0,0,5.23,8.92V87.67L18.3,74.61V60.29H29.11c1.15,0,2.28,0,3.4.11L65,27.91A20.41,20.41,0,0,0,56.89,14.18ZM30.16,50.38H18.3V17.78a56.77,56.77,0,0,1,11.56-.9c13.22,0,22.23,4.66,22.23,16.52C52.09,43.16,44,50.38,30.16,50.38Z"/><polygon class="cls-3" points="106.1 65.35 94.69 76.76 80.55 76.76 80.55 90.9 67.48 103.97 67.48 23 80.55 23 80.55 65.35 106.1 65.35"/><polygon class="cls-4" points="135.81 27.93 135.81 123.43 122.6 123.43 122.6 75.97 87.78 75.97 99.19 64.56 122.6 64.56 122.6 41.15 135.81 27.93"/><path class="cls-5" d="M70.32,81.85a27.25,27.25,0,0,1-8.56,20.27c-7.06,6.46-18.48,9.46-35,9.46a151.19,151.19,0,0,1-20.27-1.2V89.56L19.56,76.49v24.28a69.79,69.79,0,0,0,11,.6c13.52,0,26-5,26-19.67,0-12.71-10-18.55-22.74-19.42l32.5-32.49a27.53,27.53,0,0,1,.31,4.15c0,9.76-6.46,18.32-17.13,22.22v.31C59.06,58.87,70.32,66.83,70.32,81.85Z"/><polygon class="cls-6" points="102.06 31.12 81.77 66.25 122.34 66.25 102.06 31.12"/><rect class="cls-7" x="101.96" y="49.26" width="7.15" height="7.15"/><rect class="cls-7" x="101.96" y="56.41" width="7.15" height="6.68"/><rect class="cls-7" x="95.29" y="56.41" width="6.68" height="6.68"/><rect class="cls-7" x="95.29" y="49.26" width="6.68" height="7.15"/><rect class="cls-8" x="80.76" y="66.19" width="42.1" height="10.05"/></g></g></svg>